<svg width="469" height="140" viewBox="0 0 469 140" fill="none" xmlns="http://www.w3.org/2000/svg">
<path d="M122.082 19.0757L119.509 29.086H129.169C129.169 29.086 127.162 38.3918 125.703 45.1327C124.61 50.164 121.47 63.2546 123.722 68.1192C125.354 71.6448 129.654 73.7747 133.07 73.9682C140.138 74.3734 148.741 74.2036 148.741 74.2036L151.187 61.1964L145.889 61.3303C145.889 61.3303 141.242 61.5493 140.586 59.1656C139.142 53.908 145.778 29.0873 145.778 29.0873L157.846 29.086L159.658 19.2345L148.097 19.0763L151.732 2.80213C151.732 2.80213 142.491 2.52836 140.315 2.80213C137.293 3.17933 134.878 6.72985 133.792 9.98347C132.467 13.941 131.617 19.0617 131.617 19.0617L122.083 19.077L122.082 19.0757ZM153.075 74.1951C153.075 74.1951 154.454 64.2298 159.476 57.6745C166.126 48.9929 182.019 42.0233 187.032 39.6859C196.171 35.4199 201.608 29.765 201.608 24.7519C201.608 21.2233 198.752 15.8069 191.958 15.8069C185.161 15.8069 179.32 21.4983 178.641 29.086C176.694 29.0739 174.002 29.0739 169.569 29.0739C167.649 29.0739 161.242 29.086 161.242 29.086C161.242 29.086 163.693 15.5496 171.706 9.57342C178.132 4.78546 182.995 2.75346 191.822 2.39574C201.879 1.98812 211.393 5.51065 215.74 12.4206C219.906 19.0435 221.125 29.9542 214.837 36.8758C209.325 42.9456 203.655 46.2783 198.693 49.1468C191.981 53.0246 182.958 57.5814 180.364 58.87C178.149 59.9553 178.503 61.0602 178.503 61.0602H207.573C211.932 61.0602 214.266 59.3628 214.266 59.3628C214.266 59.3628 216.134 65.4204 213.155 69.4461C212.098 70.8758 209.046 74.1945 203.746 74.1945H153.075V74.1951ZM222.592 74.2012L225.657 56.1517L245.738 56.1335L242.648 74.2006H222.591L222.592 74.2012ZM309.781 54.0297C309.781 71.3053 292.59 75.5816 291.247 75.9874C287.723 77.049 282.625 77.4931 277.593 77.5144C266.924 77.5631 253.803 68.4057 253.803 53.2321C253.803 32.4437 266.569 16.6665 288.849 17.4471C312.012 18.2575 312.427 36.1183 312.211 39.4875H294.616C294.616 38.143 295.011 30.9805 285.811 30.9805C274.945 30.9805 270.941 40.8278 270.941 51.82C270.941 59.9456 276.093 64.0072 282.446 64.0072C284.836 64.0072 286.324 63.3331 287.924 62.3876C292.317 59.5003 292.267 55.6145 292.168 54.0224L309.78 54.0309L309.781 54.0297ZM341.08 64.4951C350.152 64.4951 355.386 51.1593 355.386 41.5384C355.386 36.2072 353.057 30.7591 346.429 30.7591C336.776 30.7591 331.893 44.6703 331.893 53.4809C331.893 60.0898 335.266 64.4951 340.962 64.4951H341.08ZM338.869 77.2492C324.336 77.2492 314.679 67.857 314.679 53.8289C314.679 34.236 328.406 18.0044 348.638 18.0044C363.989 18.0044 372.828 28.4381 372.828 41.4234C372.828 62.0609 358.524 77.2486 338.988 77.2486H338.871L338.869 77.2492ZM374.113 75.3973L381.506 38.095C382.959 31.0876 383.807 25.0969 384.536 20.1258H399.562L398.47 29.1682H398.712C404.168 22.044 411.318 18.8804 418.954 18.8804C428.409 18.8804 432.526 24.5305 433.012 29.3908C438.344 22.2716 445.736 18.8804 453.492 18.8804C462.585 18.8804 467.917 24.4192 467.917 33.801C467.917 36.0618 467.43 40.4701 466.947 43.2948L460.521 75.3967H443.556L449.494 45.2173C449.979 43.0697 450.342 40.694 450.342 38.5476C450.342 34.7026 448.523 31.9923 444.526 31.9923C438.707 31.9923 432.89 39.2259 430.588 50.4159L425.621 75.3961H408.775L414.954 44.991C415.317 42.8446 415.68 40.694 415.68 38.7745C415.68 34.9296 414.348 31.9923 410.105 31.9923C404.167 31.9923 397.986 39.6761 395.925 50.5297L390.957 75.3967H374.113" fill="#EF4138"/>
<path d="M103.053 40.5754L80.9495 40.6423C80.9495 40.6423 82.6558 29.4907 93.5024 29.4907C103.462 29.4907 103.053 40.5754 103.053 40.5754ZM93.2979 18.7467C84.8887 19.0545 78.154 20.4793 70.8878 28.131C63.1419 36.2894 61.6852 58.1789 63.8333 62.642C65.9814 67.1051 69.854 75.4831 89.1952 76.1006C111.572 76.8167 116.945 58.0913 116.945 58.0913L99.2204 58.0749C99.2204 58.0749 99.0386 63.964 89.908 64.1435C77.0195 64.3942 79.8676 51.2793 79.8676 51.2793L119.273 51.2933C119.273 51.2933 119.32 50.4987 119.987 40.2268C120.704 29.1743 110.406 18.1146 93.2973 18.7473L93.2979 18.7467ZM53.232 23.7232L57.7296 34.4332L55.6791 34.3906L47.9021 23.7111C47.9021 23.7111 45.8456 23.6685 45.0278 23.6362C44.6739 23.6229 44.204 23.607 43.6853 23.5225C42.9878 27.8268 42.0498 33.4452 40.8446 39.5777C38.4854 51.5853 38.6721 60.0862 28.2881 60.0862C24.9897 60.0862 21.8805 58.5859 21.8664 56.1512C21.842 51.7629 22.5176 44.16 22.5176 44.16L4.95888 44.0833C4.95888 44.0833 4.17166 51.3888 4.17166 59.1925C4.17166 66.2558 11.8974 75.415 27.1964 75.3645C38.868 75.3219 46.6023 72.6085 53.323 63.0874C56.6824 58.3262 58.3429 47.0309 60.9633 34.6607C61.7236 31.064 62.5011 27.438 63.2456 23.9879L62.556 23.186L53.2326 23.7232H53.232ZM58.5375 2.85574C55.1262 2.91658 51.0559 3.58215 48.7632 6.32352C46.4686 9.07036 45.2036 14.3262 44.6379 17.6577C44.4945 18.4985 44.3248 19.54 44.135 20.7343C44.4737 20.7008 44.7819 20.688 45.0285 20.6795C45.8462 20.6491 47.9027 20.6077 47.9027 20.6077L55.6791 9.92514L57.7296 9.8789L53.232 20.5925L62.5585 21.1279L64.2977 19.1044C66.2993 9.86308 67.8493 2.85453 67.8493 2.85453C67.8493 2.85453 61.9604 2.79065 58.5369 2.85453L58.5375 2.85574ZM222.417 3.95266H222.948C223.553 3.95266 224.064 3.73364 224.064 3.16784C224.064 2.76814 223.771 2.36843 222.949 2.36843C222.711 2.36843 222.549 2.38668 222.418 2.40189V3.95205L222.417 3.95266ZM222.417 6.4817H221.689V1.91275C222.071 1.85678 222.439 1.80324 222.985 1.80324C223.679 1.80324 224.135 1.94925 224.407 2.15002C224.683 2.34957 224.828 2.65802 224.828 3.09484C224.828 3.69714 224.428 4.05791 223.933 4.20574V4.24103C224.337 4.31403 224.611 4.67663 224.702 5.35193C224.812 6.0607 224.922 6.33386 224.993 6.48109H224.227C224.119 6.33386 224.007 5.91773 223.917 5.31604C223.806 4.73443 223.515 4.51541 222.93 4.51541H222.417V6.48048V6.4817ZM223.186 0.636976C221.377 0.636976 219.898 2.18531 219.898 4.09563C219.898 6.04427 221.377 7.57314 223.205 7.57314C225.029 7.5926 226.492 6.04427 226.492 4.11388C226.492 2.18531 225.03 0.636976 223.205 0.636976H223.186ZM223.205 0C225.45 0 227.238 1.82089 227.238 4.09563C227.238 6.41052 225.45 8.21011 223.186 8.21011C220.941 8.21011 219.114 6.41113 219.114 4.09623C219.114 1.82089 220.941 0.000608382 223.187 0.000608382H223.205L223.205 0ZM6.75302 86.4194H35.5543L34.1038 95.7106H17.2469L15.9629 103.947H27.1823L25.8422 112.682H14.5679L11.945 128.821H0L6.75302 86.4188V86.4194ZM34.5523 98.9393H44.7679L43.9855 103.836C46.6645 100.443 49.2886 98.8833 52.8604 98.8833C53.1399 98.8833 53.4194 98.9399 53.7532 98.9399L51.7455 109.623C49.8476 108.955 48.3952 108.622 47.3352 108.622C45.7162 108.622 44.3206 109.066 42.9817 110.124L40.0238 128.821H29.8082L34.5529 98.9393H34.5523ZM57.3207 95.0998L58.7163 86.4194H68.9319L67.5357 95.0998H57.3207ZM52.0189 128.821L56.7629 98.9381H66.9217L62.2332 128.82H52.0189V128.821ZM88.2957 109.9C88.2957 106.228 87.0124 104.503 84.2772 104.503C81.5415 104.503 79.5881 106.562 78.8625 110.569H88.2951V109.901L88.2957 109.9ZM96.1655 121.642C92.4259 127.151 88.1285 129.765 82.491 129.765C73.7828 129.765 68.1459 124.257 68.1459 115.966C68.1459 111.681 69.3737 107.731 71.606 104.614C74.509 100.442 78.6947 98.2707 83.8842 98.2707C92.0347 98.2707 96.7788 103.39 96.7788 112.515C96.7788 113.629 96.6677 114.741 96.5555 115.966H78.4719C78.417 116.41 78.3609 116.857 78.3609 117.301C78.3609 120.641 80.4253 122.755 83.3832 122.755C85.7278 122.755 87.849 121.362 89.7463 118.581L96.1661 121.642L96.1655 121.642ZM103.025 98.9393H113.241L112.626 102.778C115.863 99.7728 119.1 98.2701 122.226 98.2701C126.636 98.2701 129.538 101.108 129.538 105.727C129.538 106.84 129.315 108.398 128.979 110.402L126.022 128.821H115.806L118.653 111.013C118.877 109.733 118.988 108.843 118.988 108.454C118.988 106.616 118.206 105.783 116.644 105.783C115.136 105.783 113.295 107.117 111.508 109.733L108.495 128.82H98.2794L103.024 98.9381L103.025 98.9393ZM149.011 104.948C145.048 104.948 142.313 109.956 142.313 118.582C142.313 121.697 143.653 123.366 145.773 123.366C147.226 123.366 148.788 122.476 150.798 120.807L153.086 106.784C151.634 105.561 150.35 104.948 149.01 104.948H149.011ZM159.728 128.821H149.514L149.848 126.149C146.89 128.541 143.988 129.765 140.918 129.765C135.224 129.765 131.764 125.705 131.764 118.471C131.764 106.507 137.903 98.382 145.829 98.382C149.066 98.382 151.523 99.4953 153.699 101.998L156.21 86.42H166.425L159.727 128.821H159.728ZM164.688 128.821L171.386 86.4194H181.602L174.903 128.821H164.688ZM181.577 131.212C182.246 131.269 182.804 131.269 183.419 131.269C187.94 131.269 190.005 130.045 190.005 126.927C190.005 125.982 189.669 124.98 189.391 123.867L182.358 98.9387H192.629L195.475 109.456C195.92 111.179 196.256 112.96 196.536 114.908C196.87 113.295 197.485 111.625 198.321 109.901L203.457 98.9381H211.941L196.759 129.71C194.973 133.326 193.744 136.054 189.949 137.778C188.219 138.612 186.154 139.001 183.755 139.001C183.083 139.001 182.358 138.946 181.577 138.892V131.212ZM225.125 128.821L231.823 86.4194H242.037L235.339 128.821H225.125V128.821ZM255.094 122.81C258.331 122.81 260.62 118.024 260.62 110.068C260.62 106.896 259.392 105.226 257.104 105.226C253.811 105.226 251.521 109.956 251.521 117.914C251.521 121.141 252.805 122.81 255.095 122.81L255.094 122.81ZM257.383 98.2707C265.812 98.2707 270.947 103.39 270.947 111.459C270.947 122.477 264.472 129.711 254.704 129.711C246.22 129.711 241.196 124.758 241.196 116.689C241.196 105.449 247.728 98.2701 257.383 98.2701V98.2707ZM273.006 98.9393H283.107L284.837 109.566C285.06 111.014 285.228 112.795 285.34 114.909C285.731 113.184 286.289 111.516 287.015 109.902L292.095 98.9393H299.461L301.026 109.4C301.248 110.959 301.416 112.795 301.526 114.854C301.973 113.13 302.587 111.461 303.369 109.735L308.28 98.9399H316.598L301.694 128.822H294.549L292.987 117.915C292.819 116.745 292.651 115.133 292.596 113.129C292.151 114.576 291.534 116.135 290.698 117.859L285.45 128.822H277.972L273.005 98.9393H273.006ZM337.069 105.618H333.104L334.221 98.9393H338.13L338.911 93.6525C339.747 88.0322 342.762 85.5287 348.789 85.5287C350.353 85.5287 352.194 85.8055 354.315 86.3075L353.198 93.5411C352.362 93.4864 351.804 93.3738 351.469 93.3738C349.46 93.3738 349.014 94.3776 348.68 96.7686L348.344 98.9387H353.255L352.193 105.616H347.283L343.598 128.82H333.385L337.069 105.616V105.618ZM367.429 115.577C363.41 115.577 360.898 117.691 360.898 120.641C360.898 122.086 362.182 123.31 364.023 123.31C365.308 123.31 366.76 122.7 368.434 121.53L369.216 115.687C368.49 115.633 367.876 115.577 367.43 115.577H367.429ZM367.987 128.821L367.932 126.205C364.862 128.487 362.071 129.598 359.393 129.598C354.535 129.598 351.131 126.149 351.131 121.308C351.131 114.409 357.439 110.513 369.607 110.513H370.109C370.331 109.345 370.443 108.566 370.443 108.064C370.443 106.23 369.381 105.227 367.541 105.227C365.307 105.227 363.857 106.23 362.405 108.622L353.866 106.618C356.435 101 361.122 98.2713 367.987 98.2713C375.859 98.2713 380.378 101.666 380.378 106.396C380.378 107.399 380.267 108.734 379.987 110.458L378.312 120.92C378.035 122.478 377.922 123.815 377.922 124.872C377.922 126.096 377.979 127.43 378.09 128.822H367.986L367.987 128.821ZM386.959 98.9393H397.172L396.391 103.836C399.07 100.443 401.694 98.8833 405.266 98.8833C405.546 98.8833 405.825 98.9399 406.16 98.9399L404.149 109.623C402.251 108.955 400.801 108.622 399.74 108.622C398.123 108.622 396.725 109.066 395.386 110.124L392.429 128.821H382.214L386.958 98.9393H386.959ZM425.466 109.9C425.466 106.228 424.182 104.503 421.448 104.503C418.714 104.503 416.76 106.562 416.035 110.569H425.466V109.901V109.9ZM433.338 121.642C429.597 127.151 425.298 129.765 419.662 129.765C410.954 129.765 405.318 124.257 405.318 115.966C405.318 111.681 406.546 107.731 408.778 104.614C411.68 100.442 415.867 98.2707 421.057 98.2707C429.206 98.2707 433.952 103.39 433.952 112.515C433.952 113.629 433.838 114.741 433.728 115.966H415.641C415.586 116.41 415.531 116.857 415.531 117.301C415.531 120.641 417.595 122.755 420.553 122.755C422.898 122.755 425.019 121.362 426.918 118.581L433.336 121.642L433.338 121.642ZM440.588 118.415C442.764 121.642 445.276 123.199 448.625 123.199C450.913 123.199 452.196 122.308 452.196 120.863C452.196 120.306 451.863 119.75 451.248 119.193C450.186 118.247 447.898 118.136 445.109 117.134C440.587 115.52 438.074 112.293 438.074 108.288C438.074 102.778 443.377 98.2701 450.634 98.2701C455.825 98.2701 460.066 100.551 463.304 105.114L457.443 109.01C454.874 106.172 452.307 104.78 449.741 104.78C448.179 104.78 447.23 105.559 447.23 106.729C447.23 108.954 449.741 109.01 453.201 110.179C459.117 112.183 461.964 114.796 461.964 119.248C461.964 125.203 456.773 129.709 448.401 129.709C441.981 129.709 437.349 127.541 434.112 122.701L440.586 118.415H440.588ZM463.184 94.5291H463.715C464.317 94.5291 464.829 94.3101 464.829 93.7443C464.829 93.344 464.536 92.9449 463.715 92.9449C463.477 92.9449 463.314 92.9632 463.184 92.979V94.5291ZM463.184 97.0576H462.455V92.4886C462.837 92.4339 463.204 92.3791 463.75 92.3791C464.445 92.3791 464.901 92.5239 465.172 92.7259C465.449 92.9254 465.593 93.2345 465.593 93.6713C465.593 94.2736 465.194 94.6338 464.699 94.7822V94.8175C465.103 94.8905 465.376 95.2537 465.467 95.929C465.577 96.6372 465.687 96.9109 465.758 97.0576H464.992C464.885 96.9116 464.772 96.4942 464.683 95.8931C464.572 95.3115 464.281 95.0925 463.696 95.0925H463.185V97.0576H463.184ZM463.953 91.2134C462.142 91.2134 460.664 92.7618 460.664 94.6721C460.664 96.6201 462.142 98.149 463.97 98.149C465.796 98.1673 467.257 96.6201 467.257 94.6897C467.257 92.7612 465.796 91.2122 463.97 91.2122H463.953V91.2134ZM463.97 90.5759C466.216 90.5759 468.004 92.3974 468.004 94.6721C468.004 96.9852 466.216 98.7848 463.953 98.7848C461.706 98.7848 459.879 96.9852 459.879 94.6721C459.879 92.3967 461.706 90.5753 463.952 90.5753H463.971" fill="#EF4138"/>
</svg>
