<svg width="98" height="23" viewBox="0 0 98 23" fill="none" xmlns="http://www.w3.org/2000/svg">
<path d="M7.51708 11.2952L8.20042 12.9946H7.88503L6.69356 11.2952C6.69356 11.2952 6.37817 11.2952 6.25552 11.277C6.18543 11.277 6.11535 11.277 6.04526 11.2587C5.94013 11.9531 5.79996 12.8484 5.60722 13.8169C5.25679 15.7356 5.27431 17.0878 3.69736 17.0878C3.18924 17.0878 2.71615 16.8502 2.71615 16.4665C2.71615 15.7721 2.82128 14.5478 2.82128 14.5478L0.140474 14.5296C0.140474 14.5296 0.0178223 15.699 0.0178223 16.9416C0.0178223 18.0745 1.19177 19.5363 3.52215 19.5181C5.30935 19.5181 6.4833 19.0795 7.51708 17.5629C8.02521 16.7954 8.28803 15.0046 8.67351 13.0312C8.79616 12.4647 8.90129 11.88 9.02394 11.3318L8.91881 11.2039L7.51708 11.2952ZM8.32307 7.96957C7.79742 7.96957 7.18417 8.0792 6.83373 8.51776C6.4833 8.95631 6.29056 9.79686 6.20296 10.3268C6.18543 10.4547 6.15039 10.6191 6.13287 10.8201C6.18543 10.8201 6.238 10.8201 6.27304 10.8201L6.71108 10.8019L7.90255 9.10249H8.21794L7.5346 10.8019L8.95385 10.875L9.21668 10.5461C9.53207 9.06594 9.75985 7.95129 9.75985 7.95129C9.75985 7.95129 8.8312 7.95129 8.32307 7.96957Z" fill="#EE3123"/>
<path d="M15.104 13.9813L11.7398 13.9996C11.7398 13.9996 12.0027 12.2271 13.6497 12.2271C15.1741 12.2089 15.104 13.9813 15.104 13.9813ZM13.6147 10.4912C12.3356 10.546 11.3018 10.7653 10.1979 11.9896C9.00648 13.287 8.79622 16.7771 9.12913 17.4897C9.46204 18.2024 10.0403 19.5363 13.0014 19.646C16.4181 19.7556 17.2416 16.7771 17.2416 16.7771H14.5258C14.5258 16.7771 14.4907 17.709 13.1065 17.7456C11.1441 17.7821 11.5822 15.699 11.5822 15.699H17.5921C17.5921 15.699 17.5921 15.5711 17.6972 13.9265C17.8023 12.1541 16.2254 10.3998 13.6147 10.4912Z" fill="#EE3123"/>
<path d="M18.0126 10.5459L17.6271 12.1357H19.0989C19.0989 12.1357 18.7835 13.6158 18.5732 14.6939C18.4155 15.4979 17.9249 17.581 18.2754 18.3668C18.5207 18.9332 19.1865 19.2621 19.6946 19.2987C20.781 19.3535 22.0776 19.3352 22.0776 19.3352L22.4455 17.2521L21.6395 17.2704C21.6395 17.2704 20.9387 17.3069 20.8335 16.9232C20.6058 16.0826 21.622 12.1357 21.622 12.1357H23.4618L23.7421 10.5642L21.9724 10.5459L22.5331 7.95118C22.5331 7.95118 21.1314 7.91463 20.7985 7.95118C20.3429 8.006 19.975 8.57246 19.7998 9.10237C19.6596 9.57747 19.5545 10.0526 19.4668 10.5459H18.0126Z" fill="#EE3123"/>
<path d="M22.7433 19.3353C22.7433 19.3353 22.9535 17.7455 23.7245 16.704C24.7408 15.3152 27.1587 14.2006 27.9297 13.8351C29.3314 13.159 30.1549 12.2454 30.1549 11.4596C30.1374 10.6556 29.4891 10.0161 28.7182 10.0344C28.7006 10.0344 28.7006 10.0344 28.6831 10.0344C27.6493 10.0344 26.7557 10.948 26.6506 12.154H23.9873C23.9873 12.154 24.3553 9.99781 25.5818 9.04762C26.563 8.28015 27.2989 7.95124 28.6481 7.89642C30.19 7.82333 31.6268 8.38979 32.2926 9.48617C32.9234 10.546 33.1161 12.2819 32.1524 13.3966C31.3114 14.365 30.4528 14.895 29.6819 15.3518C28.6656 15.9731 27.2814 16.704 26.8784 16.905C26.5455 17.0877 26.598 17.2522 26.598 17.2522H31.031C31.3814 17.2704 31.7494 17.1791 32.0473 16.9781C32.0473 16.9781 32.3276 17.9465 31.8721 18.5861C31.5391 19.0612 30.996 19.3353 30.4353 19.3353H22.7433Z" fill="#EE3123"/>
<path d="M38.9157 11.3317C37.9696 11.3317 37.076 11.8251 36.5503 12.6656H36.5153L37.3563 8.06087C37.0409 8.06087 36.0597 8.02432 36.0422 8.04259C35.096 7.98777 34.8332 9.17551 34.8157 9.19379C34.7456 9.37652 34.693 9.61406 34.658 9.83334L33.1161 18.312L32.9233 19.3901H35.2712L35.9371 15.7538C36.1123 14.5843 36.6905 13.5976 37.6892 13.5976C38.3375 13.561 38.6003 14.0361 38.6003 14.5112C38.5828 14.9132 38.5303 15.3152 38.4427 15.7172L37.7944 19.4084H40.2299L40.8606 15.7355C40.9658 15.1873 41.0359 14.6208 41.0359 14.0727C41.0359 12.5195 40.2824 11.3317 38.9157 11.3317Z" fill="#EE3123"/>
<path d="M45.9595 11.3318C43.2962 11.3318 41.5615 13.2139 41.5615 15.9731C41.5615 17.9649 42.5778 19.5729 45.1009 19.5729C47.624 19.5729 49.4988 18.1293 49.4988 14.8402C49.4988 12.885 48.2723 11.3318 45.9595 11.3318ZM45.2761 17.6908C44.4876 17.709 43.997 16.9964 43.997 15.9366C43.997 14.6757 44.6979 13.2504 45.8368 13.2504C46.7479 13.2504 47.0633 14.0179 47.0633 14.8402C47.0633 16.6309 46.38 17.6908 45.2761 17.6908Z" fill="#EE3123"/>
<path d="M52.6702 8.06098C51.724 8.00616 51.4612 9.1939 51.4437 9.1939C51.3385 9.5959 51.2334 9.97964 51.1808 10.3999L50.9355 11.7704L49.5688 19.4085H51.9343L53.9668 8.06098C53.6339 8.06098 52.6702 8.0427 52.6702 8.06098Z" fill="#EE3123"/>
<path d="M53.1259 19.4084H55.4913L56.9105 11.5145H54.5276L53.1259 19.4084Z" fill="#EE3123"/>
<path d="M57.5062 8.22546H55.1233L54.7728 10.2355H57.1382L57.5062 8.22546Z" fill="#EE3123"/>
<path d="M64.7952 8.06084C63.849 8.00602 63.5862 9.19376 63.5686 9.19376C63.4635 9.59576 63.3584 9.9795 63.3058 10.3998L62.8678 12.8118V12.7753H62.8503C62.4998 11.9347 61.6763 11.3134 60.4848 11.3134C58.1545 11.3134 57.0331 13.7254 57.0331 16.3019C57.0331 18.0744 58.1019 19.5545 59.5737 19.5545C60.8878 19.5545 61.4485 18.9881 62.0443 18.111H62.0618L61.8866 19.3718H64.0242C64.0417 19.0429 64.0943 18.6591 64.1644 18.184L66.0041 8.02429C65.6187 8.06084 64.8127 8.04257 64.7952 8.06084ZM60.59 17.5079C59.8541 17.5079 59.4686 16.8501 59.4686 15.8817C59.4686 14.6574 60.1344 13.4331 61.2383 13.4331C62.0267 13.4331 62.3597 14.2554 62.3597 15.0411C62.3597 16.0827 61.6938 17.5079 60.59 17.5079Z" fill="#EE3123"/>
<path d="M69.3159 11.3318C68.4574 11.3135 67.6163 11.478 66.8279 11.7886L66.6001 13.7804C67.2659 13.3418 68.0368 13.1408 68.8078 13.1591C69.5788 13.1591 70.0694 13.6159 70.0694 14.1824C70.0694 14.292 70.0694 14.4017 70.0518 14.493C69.7189 14.4565 69.2634 14.4199 68.7903 14.4199C66.7052 14.4199 65.0406 15.3701 65.0406 17.3071C65.0406 18.842 65.8466 19.5912 67.3185 19.5912C68.2296 19.5912 69.1057 19.2075 69.6138 18.3121V18.2755L69.6313 18.3121L69.5262 19.4267H71.4536C71.7164 17.0512 72.3121 15.2788 72.3121 14.0362C72.2771 12.081 70.9454 11.3318 69.3159 11.3318ZM68.0369 17.7822C67.6163 17.7822 67.2484 17.435 67.2484 16.9964C67.2484 16.3021 68.0719 15.827 69.1933 15.8818C69.4035 15.8818 69.6138 15.9001 69.8241 15.9366C69.6313 16.9782 69.0356 17.7822 68.0369 17.7822Z" fill="#EE3123"/>
<path d="M78.0767 11.5145L75.7638 16.503H75.7463L75.133 11.5145H72.7501L74.2569 19.3718C73.9941 20.1393 73.5736 20.6327 72.9603 20.6692C71.9616 20.6327 71.9616 19.9749 71.8915 20.1393C70.7701 22.6427 72.8727 22.7523 72.8727 22.7523C72.9603 22.7523 73.0655 22.7523 73.1706 22.7523C74.6775 22.7523 75.4484 21.8204 76.1318 20.4317L80.5998 11.4962L78.0767 11.5145Z" fill="#EE3123"/>
<path d="M83.6309 13.1591C84.2792 13.1591 84.9275 13.3053 85.5057 13.5976L85.9963 11.8069C85.2779 11.5145 84.507 11.3683 83.736 11.3318C82.1591 11.3318 80.3018 12.081 80.3018 13.9265C80.3018 16.5213 83.1053 15.9548 83.1053 17.0695C83.1053 17.7273 82.1591 17.7639 81.7911 17.7639C81.1253 17.7639 80.477 17.6177 79.8813 17.307L79.4082 19.1709C80.3368 19.4632 81.3005 19.5912 82.2642 19.5729C84.0339 19.5363 85.4532 18.5679 85.4532 16.6127C85.4532 14.6209 82.5095 14.694 82.5095 13.8169C82.5271 13.287 83.1053 13.1591 83.6309 13.1591Z" fill="#EE3123"/>
<path d="M81.5986 6.10567C81.9665 5.72193 81.6512 4.99102 81.0905 4.18701C80.5473 3.41954 79.7063 3.32818 79.3383 3.69364C78.9704 4.0591 79.0054 4.97274 79.7588 5.53921C80.5123 6.10567 81.2482 6.47112 81.5986 6.10567Z" fill="#EE3123"/>
<path d="M86.0313 3.93131C86.5395 3.85822 86.7322 3.07249 86.7497 2.08575C86.7672 1.13556 86.154 0.514276 85.6458 0.587368C85.1377 0.66046 84.6471 1.39138 84.9099 2.3233C85.1728 3.25522 85.5407 4.00441 86.0313 3.93131Z" fill="#EE3123"/>
<path d="M90.7974 4.88151C91.2354 5.17388 91.8487 4.69878 92.4794 3.94959C93.1102 3.2004 92.9876 2.34157 92.567 2.04921C92.1465 1.75684 91.3055 1.99439 90.92 2.88976C90.5345 3.78513 90.3593 4.58914 90.7974 4.88151Z" fill="#EE3123"/>
<path d="M93.9686 8.42632C94.1439 8.93796 94.9148 8.95624 95.8434 8.75523C96.737 8.5725 97.1926 7.80504 97.0174 7.2934C96.8422 6.78176 96.0362 6.45284 95.2302 6.92794C94.4242 7.40304 93.7934 7.91468 93.9686 8.42632Z" fill="#EE3123"/>
<path d="M94.1965 13.0128C94.0914 13.5428 94.7397 13.9813 95.6157 14.3285C96.4743 14.6757 97.2277 14.2737 97.3504 13.7438C97.473 13.2138 96.9649 12.4829 96.0187 12.4281C95.0726 12.3733 94.3191 12.5012 94.1965 13.0128Z" fill="#EE3123"/>
<path d="M91.9712 17.2522C91.5682 17.5812 91.7784 18.3486 92.2515 19.2257C92.6895 20.0663 93.5306 20.2673 93.9336 19.9384C94.3366 19.6095 94.4067 18.7141 93.7233 18.0563C93.04 17.3984 92.3742 16.9233 91.9712 17.2522Z" fill="#EE3123"/>
<path d="M81.4934 8.134C81.4934 8.134 81.178 8.68219 81.4058 8.84665C81.4058 8.84665 81.5109 9.17556 82.1241 8.53601C82.1592 8.53601 85.4708 4.91797 89.6234 8.44464C89.6234 8.48119 93.1978 11.679 89.7285 16.4665C89.7636 16.4665 89.2554 16.905 89.4482 17.2156C89.4482 17.2156 89.6234 17.5994 90.3067 16.9964C90.3593 16.9964 95.7034 11.8617 91.0251 7.03763C91.0602 7.03763 86.3118 2.52421 81.6861 7.91473L81.4934 8.134Z" fill="#EE3123"/>
<path d="M86.5921 9.61401C87.0827 9.61401 87.4682 10.016 87.4682 10.5277C87.4682 11.0393 87.0827 11.4413 86.5921 11.4413C86.1015 11.4413 85.7161 11.0393 85.7161 10.5277C85.7161 10.016 86.1015 9.61401 86.5921 9.61401ZM86.5921 9.74192C86.1891 9.72365 85.8212 10.0343 85.8037 10.4728C85.7862 10.8931 86.084 11.2768 86.5045 11.2951C86.9075 11.3134 87.2755 11.0028 87.293 10.5642C87.293 10.5459 87.293 10.5277 87.293 10.5277C87.293 10.1074 86.9776 9.7602 86.5921 9.74192ZM86.4169 11.0576H86.2592V10.0343C86.3468 10.016 86.452 10.016 86.5396 10.016C86.6447 10.016 86.7498 10.0343 86.8375 10.0891C86.9075 10.1439 86.9426 10.217 86.9251 10.3084C86.9251 10.4363 86.8374 10.5277 86.7323 10.5642C86.8199 10.5825 86.8725 10.6556 86.89 10.82C86.89 10.9114 86.9251 10.9845 86.9601 11.0758H86.7849C86.7498 11.0028 86.7323 10.9114 86.7148 10.82C86.7148 10.7104 86.6272 10.6373 86.5221 10.6373H86.5045H86.3994L86.4169 11.0576ZM86.4169 10.4911H86.5221C86.6447 10.4911 86.7674 10.4363 86.7674 10.3084C86.7674 10.217 86.6973 10.1257 86.5221 10.1257C86.487 10.1257 86.452 10.1257 86.4169 10.1257V10.4911Z" fill="#EE3123"/>
</svg>
