<?xml version="1.0" encoding="utf-8"?>
<!-- Generator: Adobe Illustrator 22.0.1, SVG Export Plug-In . SVG Version: 6.00 Build 0)  -->
<svg version="1.1" id="Layer_1" xmlns="http://www.w3.org/2000/svg" xmlns:xlink="http://www.w3.org/1999/xlink" x="0px" y="0px"
	 viewBox="0 0 500 125.3" style="enable-background:new 0 0 500 125.3;" xml:space="preserve">
<style type="text/css">
	.st0{fill:#D2232A;}
	.st1{fill:url(#h_1_);}
	.st2{fill:url(#o_1_);}
	.st3{fill:url(#l_1_);}
	.st4{fill:url(#i_1_);}
	.st5{fill:url(#i-dot_1_);}
	.st6{fill:url(#d_1_);}
	.st7{fill:url(#a_1_);}
	.st8{fill:url(#y_1_);}
	.st9{fill:url(#s_1_);}
	.st10{fill:#FDB913;}
</style>
<path id="J" class="st0" d="M48.8,52.6l3.4,8.1h-1.5l-5.9-8.1c0,0-1.6,0-2.2-0.1c-0.3,0-0.7,0-1-0.1c-0.5,3.3-1.2,7.6-2.2,12.2
	c-1.8,9.1-1.7,15.6-9.5,15.6c-2.5,0-4.9-1.2-4.9-3c0-3.3,0.5-9.1,0.5-9.1l-13.3-0.1c0,0-0.6,5.6-0.6,11.5C11.5,85,17.4,92,29,91.9
	c8.9,0,14.7-2.1,19.8-9.3c2.5-3.6,3.8-12.2,5.8-21.7c0.6-2.7,1.2-5.5,1.7-8.1l-0.5-0.6L48.8,52.6L48.8,52.6z M52.8,36.7
	c-2.6,0-5.7,0.6-7.4,2.6c-1.7,2.1-2.7,6.1-3.1,8.6c-0.1,0.6-0.2,1.4-0.4,2.3c0.3,0,0.5,0,0.7,0l2.2-0.1l5.9-8.1h1.6l-3.4,8.2
	l7.1,0.4l1.3-1.5c1.5-7,2.7-12.4,2.7-12.4S55.4,36.7,52.8,36.7L52.8,36.7z"/>
<path id="E" class="st0" d="M86.6,65.4l-16.8,0.1c0,0,1.3-8.5,9.5-8.5C86.9,57,86.6,65.4,86.6,65.4L86.6,65.4z M79.2,48.8
	c-6.4,0.2-11.5,1.3-17,7.1c-5.9,6.2-7,22.9-5.4,26.3s4.6,9.8,19.2,10.3c17,0.5,21.1-13.7,21.1-13.7H83.7c0,0-0.1,4.5-7.1,4.6
	c-9.8,0.2-7.6-9.8-7.6-9.8h29.9c0,0,0-0.6,0.5-8.4C100,56.8,92.2,48.4,79.2,48.8L79.2,48.8z"/>
<path id="T" class="st0" d="M101,49.1l-2,7.6h7.3c0,0-1.5,7.1-2.6,12.2c-0.8,3.8-3.2,13.8-1.5,17.5c1.2,2.7,4.5,4.3,7.1,4.4
	c5.4,0.3,11.9,0.2,11.9,0.2l1.9-9.9l-4,0.1c0,0-3.5,0.2-4-1.6c-1.1-4,3.9-22.9,3.9-22.9h9.2l1.4-7.5l-8.8-0.1l2.8-12.4
	c0,0-7-0.2-8.7,0c-2.3,0.3-4.1,3-5,5.5c-0.7,2.3-1.3,4.6-1.6,6.9L101,49.1L101,49.1z"/>
<path id="_2" class="st0" d="M124.6,91.1c0,0,1-7.6,4.9-12.6c5-6.6,17.1-11.9,20.9-13.7c7-3.3,11.1-7.6,11.1-11.3
	c-0.1-3.9-3.3-6.9-7.1-6.8c-0.1,0-0.1,0-0.2,0c-5.2,0-9.6,4.4-10.1,10.1h-13.2c0,0,1.9-10.3,7.9-14.8c4.9-3.6,8.6-5.2,15.3-5.5
	c7.6-0.3,14.8,2.4,18.2,7.6c3.2,5,4.1,13.4-0.7,18.6c-4.2,4.6-8.5,7.2-12.3,9.3c-5.1,3-11.9,6.4-14,7.4c-1.7,0.9-1.4,1.7-1.4,1.7
	h22.1c1.8,0.1,3.6-0.4,5.1-1.3c0,0,1.4,4.6-0.9,7.7c-1.7,2.3-4.3,3.6-7.1,3.6L124.6,91.1z"/>
<linearGradient id="h_1_" gradientUnits="userSpaceOnUse" x1="195.3853" y1="206.1236" x2="195.3853" y2="155.3615" gradientTransform="matrix(1 0 0 -1 0 246.6667)">
	<stop  offset="0.27" style="stop-color:#FDB913"/>
	<stop  offset="0.81" style="stop-color:#D2232A"/>
</linearGradient>
<path id="h" class="st1" d="M205.1,52.8c-4.8,0-9.2,2.4-11.8,6.4h-0.2l4.2-22c-1.6,0-6.5-0.1-6.5-0.1c-4.7-0.2-6,5.4-6.1,5.5
	c-0.3,0.9-0.6,2-0.8,3.1l-7.7,40.5l-1,5.2h11.7l3.3-17.4c0.9-5.6,3.8-10.3,8.7-10.3c3.3-0.1,4.6,2.1,4.6,4.4
	c-0.1,1.9-0.4,3.8-0.8,5.7l-3.3,17.6h12.1l3.1-17.5c0.6-2.6,0.9-5.3,0.9-8C215.6,58.5,211.9,52.8,205.1,52.8z"/>
<linearGradient id="o_1_" gradientUnits="userSpaceOnUse" x1="238.0198" y1="206.1236" x2="238.0198" y2="155.3615" gradientTransform="matrix(1 0 0 -1 0 246.6667)">
	<stop  offset="0.27" style="stop-color:#FDB913"/>
	<stop  offset="0.81" style="stop-color:#D2232A"/>
</linearGradient>
<path id="o" class="st2" d="M240.1,52.8c-13.3,0-21.9,9-21.9,22.2c0,9.5,5.1,17.2,17.6,17.2s21.9-6.9,21.9-22.6
	C257.8,60.2,251.6,52.8,240.1,52.8z M236.7,83.1c-4,0.1-6.4-3.3-6.4-8.4c0-6,3.5-12.8,9.2-12.8c4.6,0,6.1,3.7,6.1,7.6
	C245.7,78.1,242.2,83.1,236.7,83.1z"/>
<linearGradient id="l_1_" gradientUnits="userSpaceOnUse" x1="268.9864" y1="206.1236" x2="268.9864" y2="155.3615" gradientTransform="matrix(1 0 0 -1 0 246.6667)">
	<stop  offset="0.27" style="stop-color:#FDB913"/>
	<stop  offset="0.81" style="stop-color:#D2232A"/>
</linearGradient>
<path id="l" class="st3" d="M273.5,37.2c-4.7-0.2-6,5.4-6.1,5.5c-0.6,1.9-1,3.8-1.4,5.7l-1.2,6.5L258,91.4h11.9L280,37.2
	C278.3,37.2,273.6,37.1,273.5,37.2z"/>
<linearGradient id="i_1_" gradientUnits="userSpaceOnUse" x1="285.1978" y1="206.1236" x2="285.1978" y2="155.3615" gradientTransform="matrix(1 0 0 -1 0 246.6667)">
	<stop  offset="0.27" style="stop-color:#FDB913"/>
	<stop  offset="0.81" style="stop-color:#D2232A"/>
</linearGradient>
<polygon id="i" class="st4" points="275.8,91.4 287.6,91.4 294.6,53.7 282.8,53.7 "/>
<linearGradient id="i-dot_1_" gradientUnits="userSpaceOnUse" x1="290.7964" y1="206.1236" x2="290.7964" y2="155.3615" gradientTransform="matrix(1 0 0 -1 0 246.6667)">
	<stop  offset="0.27" style="stop-color:#FDB913"/>
	<stop  offset="0.81" style="stop-color:#D2232A"/>
</linearGradient>
<polygon id="i-dot" class="st5" points="297.6,38 285.8,38 284,47.6 295.8,47.6 "/>
<linearGradient id="d_1_" gradientUnits="userSpaceOnUse" x1="317.5771" y1="206.1236" x2="317.5771" y2="155.3615" gradientTransform="matrix(1 0 0 -1 0 246.6667)">
	<stop  offset="0.27" style="stop-color:#FDB913"/>
	<stop  offset="0.81" style="stop-color:#D2232A"/>
</linearGradient>
<path id="d" class="st6" d="M333.9,37.2c-4.7-0.2-6,5.4-6.1,5.5c-0.6,1.9-1,3.8-1.3,5.7l-2.2,11.5v-0.1h-0.1c-1.7-4-5.9-7-11.8-7
	c-11.6,0-17.2,11.5-17.2,23.9c0,8.5,5.3,15.5,12.6,15.5c6.5,0,9.3-2.7,12.3-6.9h0.1l-0.9,6H330c0.1-1.5,0.3-3.4,0.7-5.7l9.1-48.5
	C338,37.2,333.9,37.1,333.9,37.2z M312.9,82.3c-3.7,0-5.6-3.1-5.6-7.7c0-5.9,3.3-11.7,8.8-11.7c3.9,0,5.6,3.9,5.6,7.7
	C321.8,75.5,318.4,82.3,312.9,82.3L312.9,82.3z"/>
<linearGradient id="a_1_" gradientUnits="userSpaceOnUse" x1="353.0739" y1="206.1236" x2="353.0739" y2="155.3615" gradientTransform="matrix(1 0 0 -1 0 246.6667)">
	<stop  offset="0.27" style="stop-color:#FDB913"/>
	<stop  offset="0.81" style="stop-color:#D2232A"/>
</linearGradient>
<path id="a" class="st7" d="M356.4,52.8c-4.2-0.1-8.5,0.7-12.4,2.2l-1.2,9.5c3.3-2.1,7.1-3.1,11-3c3.8,0,6.2,2.2,6.2,4.8
	c0,0.5,0,1-0.1,1.5c-1.6-0.1-4-0.4-6.3-0.4c-10.3,0-18.7,4.6-18.7,13.8c0,7.3,4,10.9,11.3,10.9c4.6,0,8.9-1.8,11.4-6.1V86l0.1,0.1
	l-0.5,5.3h9.6c1.3-11.3,4.3-19.8,4.3-25.7C371.1,56.4,364.5,52.8,356.4,52.8z M350,83.6c-2.1,0-3.9-1.6-4-3.8c0-3.3,4.1-5.6,9.7-5.3
	c1,0,2.1,0.1,3.1,0.2C357.9,79.7,355,83.6,350,83.6L350,83.6z"/>
<linearGradient id="y_1_" gradientUnits="userSpaceOnUse" x1="389.9066" y1="206.1236" x2="389.9066" y2="155.3615" gradientTransform="matrix(1 0 0 -1 0 246.6667)">
	<stop  offset="0.27" style="stop-color:#FDB913"/>
	<stop  offset="0.81" style="stop-color:#D2232A"/>
</linearGradient>
<path id="y" class="st8" d="M400,53.7l-11.5,23.8h-0.1l-3.1-23.8h-11.9l7.5,37.5c-1.3,3.7-3.4,6-6.5,6.2l0,0c-5-0.2-5-3.4-5.4-2.6
	c-5.6,11.9,4.9,12.5,4.9,12.5l0,0c0.5,0,1,0,1.5,0c7.5,0,11.3-4.4,14.8-11.1l22.2-42.6L400,53.7z"/>
<linearGradient id="s_1_" gradientUnits="userSpaceOnUse" x1="423.0212" y1="206.1236" x2="423.0212" y2="155.3615" gradientTransform="matrix(1 0 0 -1 0 246.6667)">
	<stop  offset="0.27" style="stop-color:#FDB913"/>
	<stop  offset="0.81" style="stop-color:#D2232A"/>
</linearGradient>
<path id="s" class="st9" d="M427.6,61.5c3.2,0,6.4,0.7,9.4,2.1l2.5-8.5c-3.6-1.4-7.4-2.1-11.2-2.2c-7.8,0-17.1,3.5-17.1,12.4
	c0,12.4,14,9.7,14,15c0,3.1-4.7,3.3-6.6,3.3c-3.3,0-6.5-0.7-9.5-2.2l-2.3,8.9c4.6,1.4,9.4,2,14.2,2c8.8-0.1,15.9-4.8,15.9-14.1
	c0-9.5-14.6-9.2-14.6-13.4C422.1,62.2,425,61.5,427.6,61.5z"/>
<path id="sun-7" class="st10" d="M417.5,27.9c1.8-1.8,0.3-5.3-2.5-9.2c-2.7-3.7-6.9-4.1-8.7-2.3s-1.6,6.1,2.1,8.8
	S415.7,29.7,417.5,27.9L417.5,27.9z"/>
<path id="sun-6" class="st10" d="M439.6,17.5c2.5-0.3,3.5-4.1,3.6-8.8c0.1-4.6-3-7.5-5.5-7.2c-2.5,0.3-5,3.9-3.7,8.3
	S437.1,17.8,439.6,17.5z"/>
<path id="sun-5" class="st10" d="M463.2,22c2.1,1.4,5.2-0.9,8.4-4.4c3.2-3.6,2.5-7.6,0.4-9s-6.3-0.3-8.2,4
	C462,16.8,461.1,20.6,463.2,22z"/>
<path id="sun-4" class="st10" d="M479.1,39c0.9,2.4,4.7,2.5,9.4,1.6c4.5-0.9,6.7-4.5,5.8-6.9s-4.8-4-8.9-1.8
	C481.3,34.1,478.2,36.5,479.1,39L479.1,39z"/>
<path id="sun-3" class="st10" d="M480.2,60.9c-0.6,2.5,2.7,4.6,7.1,6.3c4.3,1.6,8.1-0.3,8.6-2.8c0.5-2.5-1.9-6-6.6-6.2
	C484.7,57.9,480.8,58.4,480.2,60.9L480.2,60.9z"/>
<path id="sun-2" class="st10" d="M469.1,81.1c-2,1.6-0.9,5.2,1.4,9.4c2.2,4,6.4,4.9,8.4,3.4s2.3-5.9-1-9S471.2,79.5,469.1,81.1
	L469.1,81.1z"/>
<path id="sun-1" class="st10" d="M417,37.6c0,0-1.5,2.6-0.5,3.4c0,0,0.5,1.6,3.5-1.5c0.2,0,16.6-17.2,37.3-0.5
	c0,0.1,17.8,15.4,0.5,38.3c0.1,0-2.4,2.1-1.4,3.5c0,0,0.9,1.8,4.3-1.1c0.3,0,26.8-24.5,3.5-47.6c0.1,0-23.4-21.5-46.5,4.2L417,37.6
	L417,37.6z"/>
<path id="R" class="st0" d="M442.3,44.6c2.4,0,4.4,2,4.4,4.4c0,2.4-2,4.4-4.4,4.4c-2.4,0-4.4-2-4.4-4.4
	C438,46.5,439.9,44.6,442.3,44.6z M442.3,45.3c-2-0.1-3.8,1.4-3.9,3.5c-0.1,2,1.4,3.8,3.5,3.9c2,0.1,3.8-1.4,3.9-3.5
	c0-0.1,0-0.1,0-0.2C445.9,47,444.3,45.3,442.3,45.3z M441.5,51.5h-0.8v-4.9c0.5-0.1,0.9-0.1,1.4-0.1c0.5,0,1.1,0.1,1.5,0.4
	c0.3,0.2,0.5,0.6,0.5,1c0,0.6-0.4,1.1-1,1.2l0,0c0.4,0.1,0.7,0.5,0.8,1.2c0,0.4,0.1,0.8,0.3,1.2h-0.9c-0.2-0.4-0.3-0.8-0.3-1.2
	c0-0.5-0.4-0.9-0.9-0.9c0,0-0.1,0-0.1,0h-0.5L441.5,51.5z M441.5,48.8h0.6c0.6,0,1.2-0.2,1.2-0.9c0-0.4-0.3-0.9-1.2-0.9
	c-0.2,0-0.4,0-0.6,0V48.8z"/>
<path class="st0" d="M12.9,100.7h6.2c5.3,0,8,2,8,5.7c0,3.9-2.7,6.2-7.7,6.2h-3.3l-1,6.5H10L12.9,100.7z M19.2,109
	c1.7,0,2.7-0.8,2.7-2.4c0-1.4-0.8-2.1-2.4-2.1h-2l-0.7,4.6H19.2z"/>
<path class="st0" d="M34.5,119.1V118c-1,0.9-2.3,1.4-3.7,1.5c-1.9,0.1-3.5-1.4-3.6-3.3c0-0.1,0-0.2,0-0.3c0-3,2.7-4.7,8-4.7h0.2
	c0.1-0.3,0.1-0.7,0.1-1.1c0.1-0.6-0.4-1.2-1-1.2c-0.1,0-0.2,0-0.2,0c-1,0-1.8,0.6-2.2,1.5l-3.7-0.9c1.1-2.4,3.1-3.6,6.1-3.6
	c3.4,0,5.3,1.5,5.3,3.5c0,0.6-0.1,1.2-0.2,1.7l-0.8,4.6c-0.1,0.6-0.2,1.2-0.2,1.7c0,0.5,0,1.1,0.1,1.7L34.5,119.1z M34.2,113.4
	c-1.7,0-2.8,0.9-2.8,2.2c0,0.7,0.6,1.2,1.3,1.2c0,0,0,0,0,0c0.7-0.1,1.4-0.3,1.9-0.8l0.3-2.5C34.7,113.4,34.4,113.4,34.2,113.4
	L34.2,113.4z"/>
<path class="st0" d="M53.3,115c-0.6,2.7-3.1,4.6-5.9,4.5c-3.6,0-6-2.4-6-6.2c0-1.7,0.5-3.4,1.5-4.7c1.3-1.7,3.3-2.7,5.5-2.7
	c2.9,0,5,1.7,5.2,4.6l-3.8,0.3c-0.1-1.3-0.5-1.8-1.4-1.8c-1.4,0-2.5,1.9-2.5,5.2c0,1.6,0.7,2.4,1.9,2.4c0.9,0,1.9-0.7,2.5-2.2
	L53.3,115z"/>
<path class="st0" d="M54.4,119.1l2.9-18.3h4.4L60,110.9l4.1-4.7h4.4l-4.1,4.4l2.8,8.5h-4.6l-1.6-5.2l-1.8,2l-0.5,3.2L54.4,119.1z"/>
<path class="st0" d="M75,119.1V118c-1,0.9-2.3,1.4-3.7,1.5c-1.9,0.1-3.5-1.4-3.6-3.3c0-0.1,0-0.2,0-0.3c0-3,2.7-4.7,8-4.7h0.2
	c0.1-0.3,0.1-0.7,0.1-1.1c0.1-0.6-0.4-1.2-1-1.2c-0.1,0-0.2,0-0.2,0c-1,0-1.8,0.6-2.2,1.5l-3.7-0.9c1.1-2.4,3.1-3.6,6.1-3.6
	c3.4,0,5.3,1.5,5.3,3.5c0,0.6-0.1,1.2-0.2,1.7l-0.8,4.6c-0.1,0.6-0.2,1.2-0.2,1.7c0,0.5,0,1.1,0.1,1.7L75,119.1z M74.8,113.4
	c-1.7,0-2.8,0.9-2.8,2.2c0,0.7,0.6,1.2,1.3,1.2c0,0,0,0,0,0c0.7-0.1,1.4-0.3,1.9-0.8l0.3-2.5C75.2,113.4,75,113.4,74.8,113.4
	L74.8,113.4z"/>
<path class="st0" d="M93.9,106.2c-0.3-0.1-0.6-0.1-0.9-0.1c-0.5,0-1.1,0.2-1.5,0.5c1.5,0.4,2.4,1.7,2.4,3.3c0,2.6-2.2,4.3-6,4.3
	c-0.5,0-1,0-1.4,0c-0.7,0-1.1,0.2-1.1,0.7c0,0.4,0.5,0.7,1.4,0.7s1.7,0,2,0c3.7,0,5.3,0.9,5.3,3.6c0,3.3-2.6,4.5-8.1,4.5
	c-3.3,0-5.1-1-5.1-2.5c0-0.9,0.8-1.6,2.4-2.2c-1.2-0.6-1.7-1.3-1.7-2.2c0-1.2,0.9-2.1,2.7-3c-1.2-0.6-1.9-1.8-1.9-3.2
	c0-2.6,2.4-4.4,6.7-4.4c0.3,0,0.7,0,1,0c0.4-1.7,1.9-2.8,3.6-2.8h0.3L93.9,106.2z M84.3,120.1c0,0.9,0.6,1.1,2.1,1.1
	c2.8,0,4-0.1,4-1.1c0-0.9-1.2-1-3.6-1C85.1,119.1,84.3,119.2,84.3,120.1z M86.4,110.2c-0.1,0.8,0.5,1.5,1.3,1.6c0.1,0,0.2,0,0.3,0
	c1,0,1.7-0.8,1.7-1.7c0,0,0-0.1,0-0.1c0.1-0.8-0.5-1.5-1.3-1.6c-0.1,0-0.2,0-0.3,0c-0.9,0-1.7,0.7-1.7,1.6
	C86.4,110,86.4,110.1,86.4,110.2L86.4,110.2z"/>
<path class="st0" d="M107.4,116c-1.6,2.4-3.5,3.5-5.9,3.5c-3.8,0-6.2-2.4-6.2-6c0-1.8,0.5-3.5,1.5-4.9c1.2-1.8,3.2-2.8,5.3-2.7
	c3.5,0,5.6,2.2,5.6,6.2c0,0.5-0.1,1-0.1,1.5h-7.8c0,0.2,0,0.4,0,0.6c-0.1,1.2,0.7,2.2,1.9,2.4c0.1,0,0.2,0,0.3,0
	c1.2-0.1,2.2-0.8,2.7-1.8L107.4,116z M104,110.9c0-1.6-0.6-2.3-1.7-2.3c-1.2,0-2,0.9-2.3,2.6h4.1L104,110.9z"/>
<path class="st0" d="M117.4,100.7h4.4l-1.1,7.1c1.1-1.2,2.6-1.9,4.1-2c1.6-0.1,3.1,1.1,3.2,2.8c0,0.2,0,0.3,0,0.5
	c0,0.7-0.1,1.4-0.2,2l-1.3,8H122l1.2-7.7c0.1-0.4,0.1-0.7,0.1-1.1c0-0.8-0.3-1.2-1-1.2c-0.7,0-1.4,0.6-2.2,1.7l-1.3,8.3h-4.4
	L117.4,100.7z"/>
<path class="st0" d="M136.3,105.9c3.6,0,5.9,2.2,5.9,5.7c0,4.8-2.8,7.9-7,7.9c-3.7,0-5.8-2.1-5.8-5.6
	C129.3,109,132.1,105.9,136.3,105.9z M135.3,116.5c1.4,0,2.4-2.1,2.4-5.5c0-1.4-0.5-2.1-1.5-2.1c-1.4,0-2.4,2-2.4,5.5
	C133.7,115.8,134.3,116.5,135.3,116.5L135.3,116.5z"/>
<path class="st0" d="M142.9,119.1l2.9-18.3h4.4l-2.9,18.3H142.9z"/>
<path class="st0" d="M149.8,119.1l2-12.9h4.4l-2,12.9H149.8z M152.1,104.5l0.6-3.8h4.4l-0.6,3.8H152.1z"/>
<path class="st0" d="M169.1,119.1h-4.4l0.1-1.2c-1.1,1-2.4,1.5-3.9,1.6c-2.5,0-4-1.7-4-4.9c0-5.2,2.6-8.7,6.1-8.7
	c1.3,0,2.6,0.5,3.4,1.6l1.1-6.7h4.4L169.1,119.1z M164.4,108.7c-1.7,0-2.9,2.2-2.9,5.9c0,1.4,0.6,2.1,1.5,2.1
	c0.8-0.1,1.6-0.5,2.2-1.1l1-6.1C165.7,109,165.1,108.8,164.4,108.7z"/>
<path class="st0" d="M178.8,119.1V118c-1,0.9-2.3,1.4-3.7,1.5c-1.9,0.1-3.5-1.4-3.6-3.3c0-0.1,0-0.2,0-0.3c0-3,2.7-4.7,8-4.7h0.2
	c0.1-0.3,0.1-0.7,0.1-1.1c0.1-0.6-0.4-1.2-1-1.2c-0.1,0-0.2,0-0.2,0c-1,0-1.8,0.6-2.2,1.5l-3.7-0.9c1.1-2.4,3.1-3.6,6.1-3.6
	c3.4,0,5.3,1.5,5.3,3.5c0,0.6-0.1,1.2-0.2,1.7l-0.7,4.5c-0.1,0.6-0.2,1.2-0.2,1.7c0,0.5,0,1.1,0.1,1.7L178.8,119.1z M178.5,113.4
	c-1.7,0-2.8,0.9-2.8,2.2c0,0.7,0.6,1.2,1.3,1.2c0,0,0,0,0,0c0.7-0.1,1.4-0.3,1.9-0.8l0.3-2.5C179,113.4,178.7,113.4,178.5,113.4
	L178.5,113.4z"/>
<path class="st0" d="M184.8,120.1c0.3,0,0.5,0,0.8,0c2,0,2.8-0.5,2.8-1.9c0-0.5-0.1-0.9-0.3-1.3l-3-10.8h4.4l1.2,4.6
	c0.2,0.8,0.3,1.6,0.5,2.4c0.2-0.7,0.4-1.5,0.8-2.2l2.2-4.7h3.7l-6.5,13.3c-0.8,1.6-1.3,2.7-2.9,3.5c-0.8,0.4-1.8,0.6-2.7,0.5
	c-0.3,0-0.6,0-0.9,0L184.8,120.1z"/>
<path class="st0" d="M199.3,114.6c0.7,1.3,2,2.1,3.5,2.1c1,0,1.5-0.4,1.5-1c0-0.3-0.2-0.6-0.4-0.7c-0.5-0.4-1.4-0.5-2.6-0.9
	c-2-0.7-3-2.1-3-3.8c0-2.4,2.3-4.4,5.4-4.4c2.2,0,4.3,1.1,5.5,3l-2.5,1.7c-0.8-1.1-2-1.7-3.3-1.8c-0.7,0-1.1,0.3-1.1,0.9
	c0,1,1.1,1,2.6,1.5c2.6,0.9,3.8,2,3.8,3.9c0,2.6-2.2,4.5-5.9,4.5c-2.8,0-4.8-0.9-6.2-3L199.3,114.6z"/>
<path class="st0" d="M215.6,120.1c0.3,0,0.5,0,0.8,0c2,0,2.8-0.5,2.8-1.9c0-0.5-0.1-0.9-0.3-1.3l-3-10.8h4.4l1.2,4.6
	c0.2,0.8,0.3,1.6,0.5,2.4c0.2-0.7,0.4-1.5,0.8-2.2l2.2-4.7h3.7l-6.5,13.3c-0.8,1.6-1.3,2.7-2.9,3.5c-0.8,0.4-1.8,0.6-2.7,0.5
	c-0.3,0-0.6,0-0.9,0L215.6,120.1z"/>
<path class="st0" d="M235.3,105.9c3.6,0,5.9,2.2,5.9,5.7c0,4.8-2.8,7.9-7,7.9c-3.7,0-5.8-2.1-5.8-5.6
	C228.3,109,231.1,105.9,235.3,105.9z M234.3,116.5c1.4,0,2.4-2.1,2.4-5.5c0-1.4-0.5-2.1-1.5-2.1c-1.4,0-2.4,2-2.4,5.5
	C232.7,115.8,233.2,116.5,234.3,116.5L234.3,116.5z"/>
<path class="st0" d="M253.9,119.1h-4.4l0.3-1.5c-1.1,1.1-2.6,1.8-4.1,1.9c-1.6,0.1-3.1-1.1-3.2-2.8c0-0.1,0-0.3,0-0.4
	c0-0.7,0.1-1.4,0.2-2l1.3-8.1h4.4l-1.2,7.8c-0.1,0.4-0.1,0.7-0.1,1.1c0,0.8,0.3,1.2,1,1.2c0.7,0,1.4-0.6,2.2-1.7l1.3-8.4h4.4
	L253.9,119.1z"/>
<path class="st0" d="M274.6,115c-0.6,2.7-3.1,4.6-5.9,4.5c-3.6,0-6-2.4-6-6.2c0-1.7,0.5-3.4,1.5-4.7c1.3-1.7,3.3-2.7,5.5-2.7
	c2.9,0,5,1.7,5.2,4.6l-3.8,0.3c-0.1-1.3-0.5-1.8-1.4-1.8c-1.4,0-2.5,1.9-2.5,5.2c0,1.6,0.7,2.4,1.9,2.4c0.9,0,1.9-0.7,2.5-2.2
	L274.6,115z"/>
<path class="st0" d="M283,119.1V118c-1,0.9-2.3,1.4-3.7,1.5c-1.9,0.1-3.5-1.4-3.6-3.3c0-0.1,0-0.2,0-0.3c0-3,2.7-4.7,8-4.7h0.2
	c0.1-0.3,0.1-0.7,0.1-1.1c0.1-0.6-0.4-1.2-1-1.2c-0.1,0-0.2,0-0.2,0c-1,0-1.8,0.6-2.2,1.5l-3.7-0.9c1.1-2.4,3.1-3.6,6.1-3.6
	c3.4,0,5.3,1.5,5.3,3.5c0,0.6-0.1,1.2-0.2,1.7l-0.7,4.5c-0.1,0.6-0.2,1.2-0.2,1.7c0,0.5,0,1.1,0.1,1.7L283,119.1z M282.7,113.4
	c-1.7,0-2.8,0.9-2.8,2.2c0,0.7,0.6,1.2,1.3,1.2c0,0,0,0,0,0c0.7-0.1,1.4-0.3,1.9-0.8l0.3-2.5C283.2,113.4,282.9,113.4,282.7,113.4
	L282.7,113.4z"/>
<path class="st0" d="M291.4,106.2h4.4l-0.3,1.7c1.1-1.2,2.6-1.9,4.1-2c1.6-0.1,3.1,1.1,3.2,2.8c0,0.1,0,0.3,0,0.4
	c0,0.7-0.1,1.4-0.2,2l-1.3,8h-4.4l1.2-7.7c0.1-0.4,0.1-0.7,0.1-1.1c0-0.8-0.3-1.2-1-1.2s-1.4,0.6-2.2,1.7l-1.3,8.3h-4.4L291.4,106.2
	z"/>
<path class="st0" d="M315.8,115c0,0.9,0.4,1.3,1.3,1.3c0.4,0,0.8,0,1.1-0.1l-0.5,3.1c-0.9,0.1-1.8,0.2-2.7,0.3
	c-2.6,0-3.9-0.8-3.9-2.7c0-0.5,0-1,0.1-1.4l1-6.3h-1.8l0.5-2.9h1.8l1.2-4.4h3.9l-0.7,4.5h1.9l-0.5,2.9h-1.9l-0.9,5.3
	C315.8,114.6,315.8,114.8,315.8,115z"/>
<path class="st0" d="M321.4,106.2h4.4l-0.3,2.1c1.2-1.5,2.3-2.1,3.8-2.1h0.4l-0.9,4.6c-0.6-0.2-1.2-0.4-1.9-0.4
	c-0.7,0-1.3,0.2-1.9,0.7l-1.3,8.1h-4.4L321.4,106.2z"/>
<path class="st0" d="M341.2,119.1h-4.4l0.3-1.5c-1.1,1.1-2.6,1.8-4.1,1.9c-1.6,0.1-3.1-1.1-3.2-2.8c0-0.2,0-0.3,0-0.5
	c0-0.7,0.1-1.4,0.2-2l1.3-8.1h4.4l-1.2,7.8c-0.1,0.4-0.1,0.7-0.1,1.1c0,0.8,0.3,1.2,1,1.2c0.7,0,1.4-0.6,2.2-1.7l1.3-8.4h4.4
	L341.2,119.1z"/>
<path class="st0" d="M345.9,114.6c0.7,1.3,2,2.1,3.5,2.1c1,0,1.5-0.4,1.5-1c0-0.3-0.2-0.6-0.4-0.7c-0.5-0.4-1.4-0.5-2.6-0.9
	c-2-0.7-3-2.1-3-3.8c0-2.4,2.3-4.4,5.4-4.4c2.2,0,4.3,1.1,5.5,3l-2.5,1.7c-0.8-1.1-2-1.7-3.3-1.8c-0.7,0-1.1,0.3-1.1,0.9
	c0,1,1.1,1,2.6,1.5c2.6,0.9,3.8,2,3.8,3.9c0,2.6-2.2,4.5-5.9,4.5c-2.8,0-4.8-0.9-6.2-3L345.9,114.6z"/>
<path class="st0" d="M361.9,115c0,0.9,0.4,1.3,1.3,1.3c0.4,0,0.8,0,1.1-0.1l-0.5,3.1c-0.9,0.1-1.8,0.2-2.7,0.3
	c-2.6,0-3.9-0.8-3.9-2.7c0-0.5,0-1,0.1-1.4l1-6.3h-1.8l0.5-2.9h1.8l1.2-4.5h3.9l-0.7,4.5h1.9l-0.5,2.9h-1.9l-0.9,5.3
	C361.9,114.5,361.9,114.8,361.9,115z"/>
</svg>
